<svg width="22" height="19" viewBox="0 0 22 19" fill="none" xmlns="http://www.w3.org/2000/svg">
<path d="M11 1.52666L12.9972 7.28852L13.1138 7.62476H13.4697H19.8392L14.7145 11.1148L14.3982 11.3303L14.5236 11.6919L16.4984 17.3892L11.2814 13.8363L11 13.6446L10.7186 13.8363L5.50156 17.3892L7.47644 11.6919L7.60178 11.3303L7.28546 11.1148L2.16081 7.62476H8.53035H8.88622L9.00277 7.28852L11 1.52666Z" fill="#9C9B9B"/>
<path d="M11 1.52666L12.9972 7.28852L13.1138 7.62476H13.4697H19.8392L14.7145 11.1148L14.3982 11.3303L14.5236 11.6919L16.4984 17.3892L11.2814 13.8363L11 13.6446L10.7186 13.8363L5.50156 17.3892L7.47644 11.6919L7.60178 11.3303L7.28546 11.1148L2.16081 7.62476H8.53035H8.88622L9.00277 7.28852L11 1.52666Z" fill="#9C9B9B"/>
<path d="M11 1.52666L12.9972 7.28852L13.1138 7.62476H13.4697H19.8392L14.7145 11.1148L14.3982 11.3303L14.5236 11.6919L16.4984 17.3892L11.2814 13.8363L11 13.6446L10.7186 13.8363L5.50156 17.3892L7.47644 11.6919L7.60178 11.3303L7.28546 11.1148L2.16081 7.62476H8.53035H8.88622L9.00277 7.28852L11 1.52666Z" fill="#9C9B9B"/>
<path d="M11 1.52666L12.9972 7.28852L13.1138 7.62476H13.4697H19.8392L14.7145 11.1148L14.3982 11.3303L14.5236 11.6919L16.4984 17.3892L11.2814 13.8363L11 13.6446L10.7186 13.8363L5.50156 17.3892L7.47644 11.6919L7.60178 11.3303L7.28546 11.1148L2.16081 7.62476H8.53035H8.88622L9.00277 7.28852L11 1.52666Z" fill="#E5CE00"/>
<path d="M11 1.52666L12.9972 7.28852L13.1138 7.62476H13.4697H19.8392L14.7145 11.1148L14.3982 11.3303L14.5236 11.6919L16.4984 17.3892L11.2814 13.8363L11 13.6446L10.7186 13.8363L5.50156 17.3892L7.47644 11.6919L7.60178 11.3303L7.28546 11.1148L2.16081 7.62476H8.53035H8.88622L9.00277 7.28852L11 1.52666Z" stroke="#E5CE00"/>
</svg>
