<svg width="50" height="50" viewBox="0 0 50 50" fill="none" xmlns="http://www.w3.org/2000/svg">
<circle cx="25" cy="25" r="25" fill="white"/>
<path fill-rule="evenodd" clip-rule="evenodd" d="M30.7248 23.3924C30.8078 23.1664 30.7248 23 30.3273 23H29.0148C28.6808 23 28.5268 23.1436 28.4433 23.3022C28.4433 23.3022 27.7758 24.6251 26.8303 25.4844C26.5243 25.7336 26.3853 25.8126 26.2183 25.8126C26.1349 25.8126 26.0094 25.7336 26.0094 25.5072V23.3924C26.0094 23.1209 25.9174 23 25.6394 23H23.5754C23.3669 23 23.2414 23.1258 23.2414 23.2455C23.2414 23.5025 23.7144 23.5621 23.7629 24.2857V25.8578C23.7629 26.2026 23.6864 26.2651 23.5194 26.2651C23.0744 26.2651 21.9919 24.9359 21.3495 23.4152C21.225 23.1192 21.099 23 20.7635 23H19.45C19.075 23 19 23.1436 19 23.3022C19 23.5845 19.445 24.9869 21.0725 26.8417C22.1574 28.1083 23.6849 28.795 25.0764 28.795C25.9109 28.795 26.0139 28.6427 26.0139 28.3798V27.4224C26.0139 27.1174 26.0929 27.0565 26.3573 27.0565C26.5523 27.0565 26.8858 27.136 27.6648 27.7465C28.5548 28.4705 28.7013 28.795 29.2023 28.795H30.5148C30.8898 28.795 31.0777 28.6427 30.9698 28.3413C30.8508 28.0417 30.4258 27.6066 29.8623 27.0904C29.5563 26.7966 29.0973 26.4799 28.9578 26.3214C28.7633 26.1181 28.8188 26.0275 28.9578 25.8466C28.9578 25.8466 30.5578 24.0145 30.7243 23.3924H30.7248Z" fill="#AE7F7F"/>
<path d="M18.7109 17C17.7279 17.0032 16.7862 17.326 16.0911 17.8983C15.396 18.4705 15.0038 19.2457 15 20.0549V30.4097C15.0038 31.219 15.396 31.9942 16.0911 32.5664C16.7862 33.1386 17.7279 33.4615 18.7109 33.4646H31.2891C32.2721 33.4615 33.2138 33.1386 33.9089 32.5664C34.604 31.9942 34.9962 31.219 35 30.4097V20.0549C34.9962 19.2457 34.604 18.4705 33.9089 17.8983C33.2138 17.326 32.2721 17.0032 31.2891 17H18.7109ZM18.7109 18.4968H31.2891C32.3436 18.4968 33.1818 19.1868 33.1818 20.0549V30.4097C33.1818 31.2778 32.3436 31.9679 31.2891 31.9679H18.7109C18.4619 31.9692 18.2151 31.9297 17.9847 31.8519C17.7544 31.774 17.5451 31.6593 17.3691 31.5144C17.193 31.3694 17.0536 31.1971 16.9591 31.0075C16.8645 30.8179 16.8166 30.6147 16.8182 30.4097V20.0549C16.8182 19.1868 17.6564 18.4968 18.7109 18.4968Z" fill="#AE7F7F"/>
</svg>
